<?xml version="1.0" encoding="iso-8859-1"?>
<!-- Generator: Adobe Illustrator 24.1.2, SVG Export Plug-In . SVG Version: 6.00 Build 0)  -->
<svg fill="#EBEBEB" version="1.1" baseProfile="basic" id="&#x421;&#x43B;&#x43E;&#x439;_1"
	 xmlns="http://www.w3.org/2000/svg" xmlns:xlink="http://www.w3.org/1999/xlink" x="0px" y="0px" viewBox="0 0 50 50"
	 xml:space="preserve">
<path marker-start="none" marker-end="none" d="M3.05,19.001l-3.049,12h2.116l1.745-6.796l1.028,6.796h2.069l3.035-12H7.879
	l-1.723,6.772l-1.015-6.772H3.05z M12.757,19.001l-1.973,1.647L8.154,30.999h2.116l1.008-4.001h2.667l-1.008,4.001h2.104
	l2.629-10.339l-1.112-1.66H12.757z M20.849,19.001l-1.984,1.66l-0.937,3.616l1.112,1.727h3.227l-0.768,2.988h-2.664l0.269-0.993
	h-2.116l-0.321,1.291l1.148,1.712h3.741l1.996-1.687l0.9-3.605l-1.123-1.711h-3.216l0.751-3h2.653l-0.256,0.999h2.128l0.352-1.336
	l-1.101-1.66H20.85H20.849z M28.93,19.001l-1.996,1.66l-2.199,8.64l1.16,1.699h3.741l1.996-1.699l0.585-2.303h-2.116l-0.521,1.999
	h-2.653l2.045-7.996h2.641l-0.499,1.996h2.104l0.6-2.336l-1.088-1.66H28.93z M37.001,19.001l-1.985,1.66l-2.617,10.339h2.116
	l1.011-4.001h2.667l-1.024,4.001h2.116l2.617-10.352l-1.111-1.647H37.001z M43.551,19.001l-3.048,12h2.115l1.001-4.003h1.603
	l0.421,4.003h2.068l-0.455-4.091l1.483-1.32l1.255-4.929l-1.111-1.66H43.551z M12.794,21.001h2.665l-1.004,3.988h-2.664
	L12.794,21.001z M37.038,20.998h2.665l-1.013,4h-2.667L37.038,20.998z M45.143,20.998h2.655l-1.02,4h-2.641L45.143,20.998z"/>
</svg>